<svg xmlns="http://www.w3.org/2000/svg" xmlns:xlink="http://www.w3.org/1999/xlink" width="80" height="80" viewBox="0 0 80 80">
  <defs>
    <clipPath id="clip-github">
      <rect width="80" height="80"/>
    </clipPath>
  </defs>
  <g id="github" clip-path="url(#clip-github)">
    <g id="Icons1" transform="translate(-9 -7.358)">
      <path id="github-2" data-name="github" d="M48,8.345A40.005,40.005,0,0,0,35.356,86.3c2,.366,2.73-.869,2.73-1.931,0-.947-.033-3.464-.053-6.8-11.127,2.417-13.474-5.363-13.474-5.363-1.819-4.619-4.443-5.849-4.443-5.849-3.632-2.483.275-2.433.275-2.433,4.015.285,6.127,4.123,6.127,4.123,3.569,6.112,9.363,4.346,11.641,3.324a8.543,8.543,0,0,1,2.54-5.348c-8.882-1.009-18.221-4.442-18.221-19.769A15.467,15.467,0,0,1,26.6,35.521a14.389,14.389,0,0,1,.391-10.586s3.359-1.075,11,4.1a37.911,37.911,0,0,1,20.029,0C65.653,23.86,69,24.935,69,24.935a14.368,14.368,0,0,1,.4,10.586,15.441,15.441,0,0,1,4.113,10.734c0,15.367-9.354,18.747-18.266,19.737,1.438,1.235,2.716,3.675,2.716,7.409,0,5.346-.048,9.661-.048,10.971,0,1.072.719,2.317,2.75,1.926A40.007,40.007,0,0,0,48,8.345" transform="translate(1 0)" fill="#fbfbf2" fill-rule="evenodd"/>
    </g>
  </g>
</svg>
