<svg xmlns="http://www.w3.org/2000/svg" xmlns:xlink="http://www.w3.org/1999/xlink" width="80" height="80" viewBox="0 0 80 80">
  <defs>
    <clipPath id="clip-gmail">
      <rect width="80" height="80"/>
    </clipPath>
  </defs>
  <g id="gmail" clip-path="url(#clip-gmail)">
    <path id="linkedin_black_logo_icon_147114" d="M0,40A40,40,0,1,1,40,80,40,40,0,0,1,0,40Zm28.268-6.87H19.2V60.366h9.065Zm.6-8.425A4.709,4.709,0,0,0,23.8,20c-3.1,0-5.128,2.034-5.128,4.7a4.691,4.691,0,0,0,5.011,4.708h.058C26.9,29.412,28.865,27.32,28.865,24.7ZM60.959,44.75c0-8.366-4.472-12.259-10.437-12.259a9,9,0,0,0-8.171,4.5V33.131H33.285c.12,2.556,0,27.236,0,27.236h9.066V45.156a6.192,6.192,0,0,1,.3-2.209,4.961,4.961,0,0,1,4.651-3.31c3.281,0,4.593,2.5,4.593,6.158V60.366h9.065Z" fill="#fbfbf2" fill-rule="evenodd"/>
    <g id="gmail_icon-icons.com_59877" transform="translate(-9.629 -9.545)">
      <g id="Grupo_93" data-name="Grupo 93" transform="translate(9.629 9.545)">
        <ellipse id="Elipse_3" data-name="Elipse 3" cx="40" cy="40" rx="40" ry="40" transform="translate(0)" fill="#fbfbf2"/>
      </g>
      <g id="Page-1" transform="translate(23.934 29.03)">
        <g id="Icons-Communication" transform="translate(0)">
          <g id="gmail-2" data-name="gmail">
            <path id="Shape" d="M142.159,128h-41.03A5.144,5.144,0,0,0,96,133.129V163.9a5.144,5.144,0,0,0,5.129,5.129h41.03a5.145,5.145,0,0,0,5.129-5.129V133.129A5.145,5.145,0,0,0,142.159,128Zm0,35.9H137.03V141.335l-15.386,9.744-15.386-9.744V163.9h-5.129V133.129h3.078L121.644,143.9l17.437-10.771h3.078V163.9Z" transform="translate(-96 -128)" fill="#212529"/>
          </g>
        </g>
      </g>
    </g>
  </g>
</svg>
