<svg xmlns="http://www.w3.org/2000/svg" xmlns:xlink="http://www.w3.org/1999/xlink" width="80" height="80" viewBox="0 0 80 80">
  <defs>
    <clipPath id="clip-link">
      <rect width="80" height="80"/>
    </clipPath>
  </defs>
  <g id="link" clip-path="url(#clip-link)">
    <path id="linkedin_black_logo_icon_147114" d="M0,40A40,40,0,1,1,40,80,40,40,0,0,1,0,40Zm28.268-6.87H19.2V60.366h9.065Zm.6-8.425A4.709,4.709,0,0,0,23.8,20c-3.1,0-5.128,2.034-5.128,4.7a4.691,4.691,0,0,0,5.011,4.708h.058C26.9,29.412,28.865,27.32,28.865,24.7ZM60.959,44.75c0-8.366-4.472-12.259-10.437-12.259a9,9,0,0,0-8.171,4.5V33.131H33.285c.12,2.556,0,27.236,0,27.236h9.066V45.156a6.192,6.192,0,0,1,.3-2.209,4.961,4.961,0,0,1,4.651-3.31c3.281,0,4.593,2.5,4.593,6.158V60.366h9.065Z" fill="#fbfbf2" fill-rule="evenodd"/>
  </g>
</svg>
